<svg width="32" height="32" viewBox="0 0 32 32" fill="none" xmlns="http://www.w3.org/2000/svg">
<g id="ReceiptMajor 1">
<path id="Vector" d="M12.4 8C12.0818 8 11.7765 8.12643 11.5515 8.35147C11.3264 8.57652 11.2 8.88174 11.2 9.2C11.2 9.51826 11.3264 9.82348 11.5515 10.0485C11.7765 10.2736 12.0818 10.4 12.4 10.4H19.6C19.9183 10.4 20.2235 10.2736 20.4485 10.0485C20.6736 9.82348 20.8 9.51826 20.8 9.2C20.8 8.88174 20.6736 8.57652 20.4485 8.35147C20.2235 8.12643 19.9183 8 19.6 8H12.4Z" fill="#0092CF"/>
<path id="Vector_2" d="M11.2 14C11.2 13.6817 11.3264 13.3765 11.5515 13.1515C11.7765 12.9264 12.0818 12.8 12.4 12.8H14.8C15.1183 12.8 15.4235 12.9264 15.6485 13.1515C15.8736 13.3765 16 13.6817 16 14C16 14.3182 15.8736 14.6235 15.6485 14.8485C15.4235 15.0736 15.1183 15.2 14.8 15.2H12.4C12.0818 15.2 11.7765 15.0736 11.5515 14.8485C11.3264 14.6235 11.2 14.3182 11.2 14Z" fill="#0092CF"/>
<path id="Vector_3" d="M12.4 17.6C12.0818 17.6 11.7765 17.7264 11.5515 17.9514C11.3264 18.1765 11.2 18.4817 11.2 18.8C11.2 19.1182 11.3264 19.4235 11.5515 19.6485C11.7765 19.8735 12.0818 20 12.4 20H14.8C15.1183 20 15.4235 19.8735 15.6485 19.6485C15.8736 19.4235 16 19.1182 16 18.8C16 18.4817 15.8736 18.1765 15.6485 17.9514C15.4235 17.7264 15.1183 17.6 14.8 17.6H12.4Z" fill="#0092CF"/>
<path id="Vector_4" d="M17.6 14C17.6 13.6817 17.7264 13.3765 17.9515 13.1515C18.1765 12.9264 18.4817 12.8 18.8 12.8H19.6C19.9183 12.8 20.2235 12.9264 20.4485 13.1515C20.6736 13.3765 20.8 13.6817 20.8 14C20.8 14.3182 20.6736 14.6235 20.4485 14.8485C20.2235 15.0736 19.9183 15.2 19.6 15.2H18.8C18.4817 15.2 18.1765 15.0736 17.9515 14.8485C17.7264 14.6235 17.6 14.3182 17.6 14Z" fill="#0092CF"/>
<path id="Vector_5" d="M18.8 17.6C18.4817 17.6 18.1765 17.7264 17.9515 17.9514C17.7264 18.1765 17.6 18.4817 17.6 18.8C17.6 19.1182 17.7264 19.4235 17.9515 19.6485C18.1765 19.8735 18.4817 20 18.8 20H19.6C19.9183 20 20.2235 19.8735 20.4485 19.6485C20.6736 19.4235 20.8 19.1182 20.8 18.8C20.8 18.4817 20.6736 18.1765 20.4485 17.9514C20.2235 17.7264 19.9183 17.6 19.6 17.6H18.8Z" fill="#0092CF"/>
<path id="Vector_6" fill-rule="evenodd" clip-rule="evenodd" d="M6.39999 25.6C6.40012 26.0854 6.54741 26.5593 6.82245 26.9593C7.09748 27.3592 7.48732 27.6664 7.94051 27.8402C8.39371 28.014 8.88896 28.0464 9.3609 27.9329C9.83285 27.8195 10.2593 27.5656 10.584 27.2048L12.4 25.1888L14.216 27.2048C14.4411 27.4549 14.7162 27.6549 15.0235 27.7918C15.3309 27.9286 15.6635 27.9994 16 27.9994C16.3364 27.9994 16.6691 27.9286 16.9765 27.7918C17.2838 27.6549 17.5589 27.4549 17.784 27.2048L19.6 25.1888L21.416 27.2048C21.7407 27.5656 22.1671 27.8195 22.6391 27.9329C23.111 28.0464 23.6063 28.014 24.0595 27.8402C24.5127 27.6664 24.9025 27.3592 25.1775 26.9593C25.4526 26.5593 25.5999 26.0854 25.6 25.6V8C25.6 6.93913 25.1786 5.92172 24.4284 5.17157C23.6783 4.42143 22.6609 4 21.6 4H10.4C9.33913 4 8.32171 4.42143 7.57157 5.17157C6.82142 5.92172 6.39999 6.93913 6.39999 8V25.6ZM10.4 6.4C9.97565 6.4 9.56868 6.56857 9.26862 6.86863C8.96857 7.16869 8.79999 7.57565 8.79999 8V25.6L11.2112 22.9216C11.3612 22.755 11.5446 22.6219 11.7494 22.5307C11.9542 22.4396 12.1758 22.3925 12.4 22.3925C12.6242 22.3925 12.8458 22.4396 13.0506 22.5307C13.2554 22.6219 13.4388 22.755 13.5888 22.9216L16 25.6L18.4112 22.9216C18.5612 22.755 18.7446 22.6219 18.9494 22.5307C19.1542 22.4396 19.3758 22.3925 19.6 22.3925C19.8242 22.3925 20.0458 22.4396 20.2506 22.5307C20.4554 22.6219 20.6388 22.755 20.7888 22.9216L23.2 25.6V8C23.2 7.57565 23.0314 7.16869 22.7314 6.86863C22.4313 6.56857 22.0243 6.4 21.6 6.4H10.4Z" fill="#0092CF"/>
</g>
</svg>
